<svg width="100" height="55" viewBox="0 0 100 55" fill="none" xmlns="http://www.w3.org/2000/svg">
<path d="M30.6361 36.34C25.6683 36.34 21.619 32.2585 21.619 27.255C21.619 22.2514 25.6683 18.1699 30.6361 18.1699C35.604 18.1699 39.6533 22.2514 39.6533 27.255C39.6533 32.255 35.6004 36.34 30.6361 36.34ZM8.98501 54.3779C4.02433 54.3671 -0.0142581 50.2678 3.7837e-05 45.2642C0.00287096 42.8644 0.956959 40.5636 2.65321 38.866C4.34947 37.1684 6.64953 36.2125 9.04934 36.2078C14.0136 36.2185 18.0522 40.3178 18.0343 45.325C18.0296 47.7239 17.0748 50.0232 15.3788 51.7199C13.6829 53.4165 11.3839 54.3722 8.98501 54.3779ZM91.0506 54.3779C88.6511 54.3826 86.3474 53.4364 84.644 51.7464C82.9405 50.0564 81.9762 47.7602 81.962 45.3607C81.937 40.35 85.9577 36.2364 90.9148 36.2113C93.3131 36.2075 95.6153 37.1537 97.3179 38.8428C99.0204 40.532 99.9847 42.8266 99.9998 45.2249C100.028 50.232 96.0041 54.3493 91.0506 54.3779Z" fill="black"/>
<path d="M74.1493 18.6988C71.6976 17.934 69.0778 17.6159 66.5081 17.3371C62.5339 16.9083 60.9506 15.3572 60.2787 11.3757C59.8999 9.15273 59.3709 6.87254 58.4095 4.85324C56.5761 1.01122 52.2801 -0.71144 47.9664 0.271403C44.3209 1.10414 41.2938 4.73172 41.1258 8.4558C40.9328 12.7017 43.3631 16.3293 47.5375 17.5802C49.521 18.177 51.6297 18.4737 53.699 18.6273C57.4982 18.9025 58.7669 20.0355 59.7926 21.7653C60.4431 22.8589 61.0686 23.9347 61.0686 27.187C61.0686 30.4429 60.436 31.5187 59.7926 32.6087C58.7669 34.3385 57.4982 35.4679 53.699 35.7502C51.6261 35.9004 49.5175 36.2006 47.5375 36.7974C43.3631 38.0519 40.9328 41.6723 41.1258 45.9253C41.2938 49.6459 44.3245 53.2734 47.9664 54.1062C52.2801 55.0926 56.5761 53.3664 58.4095 49.5243C59.3745 47.5086 59.8999 45.2249 60.2787 43.0018C60.9542 39.0204 62.5375 37.4729 66.5081 37.0405C69.0814 36.7617 71.6976 36.44 74.1493 35.6752C77.8698 34.5137 80.1071 31.0433 80.1071 27.187C80.1071 23.3343 77.8698 19.8675 74.1493 18.6988Z" fill="#F44250"/>
</svg>
